<?xml version="1.0" encoding="utf-8"?>
<!-- Generator: Adobe Illustrator 16.0.0, SVG Export Plug-In . SVG Version: 6.00 Build 0)  -->
<!DOCTYPE svg PUBLIC "-//W3C//DTD SVG 1.1//EN" "http://www.w3.org/Graphics/SVG/1.1/DTD/svg11.dtd">
<svg version="1.1" id="Layer_1" xmlns="http://www.w3.org/2000/svg" xmlns:xlink="http://www.w3.org/1999/xlink" x="0px" y="0px"
	 width="319.628px" height="69.001px" viewBox="73.382 60.594 319.628 69.001"
	 enable-background="new 73.382 60.594 319.628 69.001" xml:space="preserve">
<path fill="#231F20" d="M171.292,95.171c0.538,4.217,4.105,7.258,9.892,7.258c3.028,0,6.999-1.176,8.883-3.18l5.249,5.322
	c-3.499,3.732-9.219,5.529-14.266,5.529c-11.44,0-18.237-7.258-18.237-18.179c0-10.368,6.864-17.833,17.631-17.833
	c11.104,0,18.035,7.05,16.756,21.082L171.292,95.171L171.292,95.171z M189.327,88.19c-0.539-4.423-3.903-6.635-8.614-6.635
	c-4.441,0-8.074,2.212-9.286,6.635H189.327z"/>
<path fill="#231F20" d="M225.191,84.181c-2.355-2.28-5.046-3.041-8.209-3.041c-3.902,0-6.056,1.244-6.056,3.386
	c0,2.212,1.951,3.456,6.19,3.733c6.259,0.415,14.2,1.866,14.2,10.92c0,6.013-4.778,11.198-14.267,11.198
	c-5.248,0-10.497-0.898-15.342-6.083l4.038-6.013c2.355,2.695,7.738,4.7,11.44,4.769c3.095,0.069,5.988-1.589,5.988-4.078
	c0-2.351-1.883-3.318-6.594-3.595c-6.258-0.483-13.728-2.834-13.728-10.575c0-7.88,7.941-10.645,13.997-10.645
	c5.182,0,9.085,1.038,12.92,4.493L225.191,84.181z"/>
<path fill="#231F20" d="M265.027,104.848c-3.835,3.872-7.873,5.392-12.786,5.392c-9.623,0-17.63-5.945-17.63-18.041
	c0-12.096,8.008-18.04,17.63-18.04c4.711,0,8.345,1.383,11.979,5.045l-5.182,5.6c-1.952-1.798-4.374-2.696-6.662-2.696
	c-5.519,0-9.555,4.147-9.555,10.091c0,6.497,4.307,9.953,9.42,9.953c2.625,0,5.249-0.76,7.269-2.833L265.027,104.848z"/>
<path fill="#231F20" d="M277.003,95.171c0.538,4.217,4.104,7.258,9.891,7.258c3.029,0,6.999-1.176,8.884-3.18l5.248,5.322
	c-3.5,3.732-9.219,5.529-14.266,5.529c-11.439,0-18.237-7.258-18.237-18.179c0-10.368,6.864-17.833,17.631-17.833
	c11.104,0,18.035,7.05,16.756,21.082L277.003,95.171L277.003,95.171z M295.037,88.19c-0.538-4.423-3.903-6.635-8.613-6.635
	c-4.441,0-8.074,2.212-9.286,6.635H295.037z"/>
<path fill="#231F20" d="M333.661,109.203V91.37c0-5.184-2.759-9.124-8.008-9.124c-5.047,0-8.479,4.354-8.479,9.539v17.418h-8.143
	V75.058h7.335l0.538,4.63c3.365-3.386,6.729-5.115,10.902-5.115c7.805,0,14.064,6.014,14.064,16.727v17.902H333.661z"/>
<path fill="#231F20" d="M357.885,65.519c0,6.566-9.69,6.566-9.69,0S357.885,58.953,357.885,65.519 M348.934,109.203h8.209V74.989
	h-8.209V109.203z"/>
<path fill="#231F20" d="M393.01,104.848c-3.837,3.872-7.875,5.392-12.786,5.392c-9.624,0-17.631-5.945-17.631-18.041
	c0-12.096,8.008-18.04,17.631-18.04c4.71,0,8.344,1.383,11.978,5.045l-5.182,5.6c-1.951-1.798-4.374-2.696-6.662-2.696
	c-5.518,0-9.556,4.147-9.556,10.091c0,6.497,4.307,9.953,9.421,9.953c2.624,0,5.248-0.76,7.267-2.833L393.01,104.848z"/>
<path fill="#231F20" d="M169.157,129.454l-0.759-1.939h-4.065l-0.76,1.939h-0.76l3.145-7.889h0.816l3.144,7.889H169.157z
	 M166.371,122.287l-1.819,4.612h3.627L166.371,122.287z"/>
<path fill="#231F20" d="M174.29,125.516c0-2.424,1.715-4.08,3.891-4.08c1.221,0,2.154,0.556,2.799,1.396l-0.553,0.367
	c-0.483-0.688-1.324-1.147-2.246-1.147c-1.795,0-3.201,1.407-3.201,3.464c0,2.035,1.405,3.464,3.201,3.464
	c0.921,0,1.762-0.461,2.246-1.146l0.565,0.355c-0.69,0.863-1.59,1.406-2.81,1.406C176.007,129.595,174.29,127.94,174.29,125.516"/>
<path fill="#231F20" d="M182.291,125.516c0-2.424,1.716-4.08,3.891-4.08c1.221,0,2.154,0.556,2.798,1.396l-0.552,0.367
	c-0.484-0.688-1.324-1.147-2.246-1.147c-1.796,0-3.2,1.407-3.2,3.464c0,2.035,1.404,3.464,3.2,3.464
	c0.922,0,1.762-0.461,2.246-1.146l0.564,0.355c-0.691,0.863-1.589,1.406-2.81,1.406C184.008,129.595,182.291,127.94,182.291,125.516
	"/>
<rect x="190.58" y="121.565" fill="#231F20" width="0.656" height="7.889"/>
<path fill="#231F20" d="M196.394,125.516c0-2.424,1.715-4.08,3.891-4.08c1.221,0,2.154,0.556,2.799,1.396l-0.553,0.367
	c-0.484-0.688-1.324-1.147-2.246-1.147c-1.795,0-3.201,1.407-3.201,3.464c0,2.035,1.405,3.464,3.201,3.464
	c0.922,0,1.762-0.461,2.246-1.146l0.564,0.355c-0.691,0.863-1.59,1.406-2.81,1.406C198.109,129.595,196.394,127.94,196.394,125.516"
	/>
<path fill="#231F20" d="M204.394,125.516c0-2.307,1.474-4.08,3.73-4.08c2.245,0,3.73,1.774,3.73,4.08c0,2.306-1.486,4.08-3.73,4.08
	C205.868,129.595,204.394,127.822,204.394,125.516 M211.164,125.516c0-2-1.197-3.464-3.04-3.464c-1.854,0-3.04,1.466-3.04,3.464
	c0,1.986,1.187,3.464,3.04,3.464C209.967,128.98,211.164,127.501,211.164,125.516"/>
<polygon fill="#231F20" points="220.27,129.454 220.27,122.417 217.472,129.454 217.219,129.454 214.41,122.417 214.41,129.454 
	213.753,129.454 213.753,121.565 214.732,121.565 217.346,128.129 219.948,121.565 220.938,121.565 220.938,129.454 "/>
<path fill="#231F20" d="M223.124,129.454v-7.889h2.879c1.474,0,2.314,1.064,2.314,2.307c0,1.242-0.852,2.307-2.314,2.307h-2.222
	v3.276L223.124,129.454L223.124,129.454z M227.626,123.872c0-0.995-0.667-1.691-1.691-1.691h-2.153v3.382h2.153
	C226.959,125.563,227.626,124.853,227.626,123.872"/>
<path fill="#231F20" d="M234.626,129.454l-0.759-1.939h-4.065l-0.759,1.939h-0.76l3.144-7.889h0.817l3.144,7.889H234.626z
	 M231.84,122.287l-1.819,4.612h3.627L231.84,122.287z"/>
<polygon fill="#231F20" points="242.282,129.454 237.446,122.678 237.446,129.454 236.789,129.454 236.789,121.565 237.457,121.565 
	242.27,128.248 242.27,121.565 242.927,121.565 242.927,129.454 "/>
<polygon fill="#231F20" points="247.381,129.454 247.381,126.083 244.329,121.565 245.124,121.565 247.715,125.445 250.306,121.565 
	251.1,121.565 248.049,126.083 248.049,129.454 "/>
<path fill="#FF752D" d="M107.384,86.444c-1.094,0.465-2.086,1.151-2.95,2.038c-0.863,0.887-1.531,1.906-1.984,3.03
	c-0.453,1.124-0.682,2.33-0.682,3.583c0,1.254,0.229,2.459,0.682,3.584c0.453,1.124,1.121,2.144,1.984,3.03
	c0.864,0.886,1.856,1.571,2.95,2.038c1.094,0.464,2.268,0.702,3.489,0.702h19.562l8.533-18.706h-28.095
	C109.652,85.743,108.478,85.979,107.384,86.444"/>
<path fill="#FF752D" d="M80.274,108.376c1.673,4.062,4.067,7.71,7.114,10.84c3.048,3.131,6.599,5.589,10.555,7.307
	c4.1,1.781,8.449,2.684,12.93,2.684h8.269l7.041-15.436h-15.31c-4.856,0-9.423-1.943-12.857-5.471
	c-3.435-3.527-5.326-8.217-5.326-13.205c0-4.99,1.891-9.68,5.326-13.207c3.434-3.528,8.001-5.471,12.857-5.471h32.348l7.041-15.437
	h-39.389c-4.48,0-8.83,0.903-12.93,2.685c-3.956,1.718-7.507,4.177-10.555,7.307c-3.047,3.13-5.441,6.778-7.114,10.841
	c-1.734,4.21-2.613,8.679-2.613,13.282C77.661,99.698,78.54,104.165,80.274,108.376"/>
</svg>
