<svg version="1.1" xmlns="http://www.w3.org/2000/svg" viewBox="0 0 1350.5357142857142 649.9999999999999" width="1350.5357142857142" height="649.9999999999999">
  <!-- svg-source:excalidraw -->
  
  <defs>
    <style class="style-fonts">
      @font-face {
        font-family: "Virgil";
        src: url("https://excalidraw.com/Virgil.woff2");
      }
      @font-face {
        font-family: "Cascadia";
        src: url("https://excalidraw.com/Cascadia.woff2");
      }
      @font-face {
        font-family: "Assistant";
        src: url("https://excalidraw.com/Assistant-Regular.woff2");
      }
    </style>
    
  </defs>
  <rect x="0" y="0" width="1350.5357142857142" height="649.9999999999999" fill="#ffffff"></rect><g stroke-linecap="round" transform="translate(468.0357142857143 83) rotate(0 255.5 245)"><path d="M32 0 C129.98 -0.63, 227.53 -1.27, 479 0 M32 0 C203.84 -0.93, 376.41 -1.01, 479 0 M479 0 C499 -1, 510.13 10.8, 511 32 M479 0 C502.08 1.45, 510.63 11.47, 511 32 M511 32 C512.69 180.62, 511.72 331.08, 511 458 M511 32 C509.2 165.03, 509.46 298.54, 511 458 M511 458 C512.3 478.79, 498.55 488.35, 479 490 M511 458 C509.11 481.23, 501.21 489.16, 479 490 M479 490 C334.75 490.57, 190.53 489.87, 32 490 M479 490 C354.48 491.13, 230.46 490.56, 32 490 M32 490 C9.83 489.72, -0.14 480.62, 0 458 M32 490 C10.07 491.77, 2 477.57, 0 458 M0 458 C-1.24 312.35, -1.95 167, 0 32 M0 458 C2.03 295.48, 2.2 133.83, 0 32 M0 32 C1.88 9.25, 11.16 -0.32, 32 0 M0 32 C-1.59 11.94, 10.82 1.63, 32 0" stroke="#1e1e1e" stroke-width="2" fill="none"></path></g><g stroke-linecap="round" transform="translate(560.0357142857142 216) rotate(0 185 37)"><path d="M18.5 0 C120.84 -1.22, 222.35 -2.18, 351.5 0 M18.5 0 C97.93 -1.03, 175.94 0.13, 351.5 0 M351.5 0 C362.2 0.29, 369.35 6.97, 370 18.5 M351.5 0 C364.18 -1.44, 370.85 5.62, 370 18.5 M370 18.5 C368.6 29.59, 371.1 39.64, 370 55.5 M370 18.5 C370.73 28.09, 369.77 39.66, 370 55.5 M370 55.5 C369.9 67.62, 364.08 72.64, 351.5 74 M370 55.5 C372.01 67.5, 364.55 74.53, 351.5 74 M351.5 74 C257.38 72.02, 164.9 72.81, 18.5 74 M351.5 74 C266.91 74.23, 181.84 74.43, 18.5 74 M18.5 74 C6.31 73.76, -1.52 69.16, 0 55.5 M18.5 74 C6.24 75.43, 1.47 69.62, 0 55.5 M0 55.5 C-2.01 43.95, -1.32 34.04, 0 18.5 M0 55.5 C-1.06 42.13, 0.63 27.69, 0 18.5 M0 18.5 C-1.5 5.67, 5.92 0.59, 18.5 0 M0 18.5 C2 7.34, 6.74 -0.09, 18.5 0" stroke="#1e1e1e" stroke-width="2" fill="none"></path></g><g stroke-linecap="round" transform="translate(560.0357142857142 328) rotate(0 185 37)"><path d="M18.5 0 C145.41 2.62, 274.28 2.51, 351.5 0 M18.5 0 C120.59 -0.37, 222.47 0.29, 351.5 0 M351.5 0 C363.52 -0.51, 368.22 6.2, 370 18.5 M351.5 0 C365.11 0.51, 372.21 4.55, 370 18.5 M370 18.5 C371.95 29.5, 369.35 39.8, 370 55.5 M370 18.5 C370.27 26, 370.5 33.29, 370 55.5 M370 55.5 C368.43 68.56, 362.99 73.75, 351.5 74 M370 55.5 C369.7 69.31, 362.48 75.59, 351.5 74 M351.5 74 C222.34 76.25, 92.98 74.6, 18.5 74 M351.5 74 C255.51 76.07, 158.95 75.44, 18.5 74 M18.5 74 C4.73 72.33, -1.24 68.77, 0 55.5 M18.5 74 C6.93 71.81, 0.58 67.3, 0 55.5 M0 55.5 C1.19 46.99, -1.46 36.13, 0 18.5 M0 55.5 C0.12 41.48, -0.91 28, 0 18.5 M0 18.5 C-1.66 4.68, 6.88 1.62, 18.5 0 M0 18.5 C-1.69 5.25, 3.94 -2.1, 18.5 0" stroke="#1e1e1e" stroke-width="2" fill="none"></path></g><g stroke-linecap="round" transform="translate(558.0357142857142 452) rotate(0 185 37)"><path d="M18.5 0 C100.42 1.18, 182.64 2.59, 351.5 0 M18.5 0 C98.81 0.47, 180.06 0.4, 351.5 0 M351.5 0 C363.28 -0.81, 368.58 6.35, 370 18.5 M351.5 0 C365.2 -0.4, 368.98 8.13, 370 18.5 M370 18.5 C371.07 32.02, 370.19 41.63, 370 55.5 M370 18.5 C370.03 29.69, 369.64 43.45, 370 55.5 M370 55.5 C368.55 69.24, 362.45 74.7, 351.5 74 M370 55.5 C369.72 68.44, 363.7 71.9, 351.5 74 M351.5 74 C273.95 75.03, 196.96 75.98, 18.5 74 M351.5 74 C275.83 73.73, 199.9 73.91, 18.5 74 M18.5 74 C7.58 74.47, 1.73 69.48, 0 55.5 M18.5 74 C3.94 73.78, -1.26 68.87, 0 55.5 M0 55.5 C-0.47 45.38, -0.21 34.3, 0 18.5 M0 55.5 C0.72 46.04, 1.19 36.69, 0 18.5 M0 18.5 C1.63 6.92, 6.11 -1.8, 18.5 0 M0 18.5 C0.09 8.42, 8.03 -2.11, 18.5 0" stroke="#1e1e1e" stroke-width="2" fill="none"></path></g><g transform="translate(595.0357142857142 243) rotate(0 18.21666717529297 12.5)"><text x="0" y="0" font-family="Virgil, Segoe UI Emoji" font-size="20px" fill="#1e1e1e" text-anchor="start" style="white-space: pre;" direction="ltr" dominant-baseline="text-before-edge">VPN</text></g><g transform="translate(595.0357142857142 355) rotate(0 73 12.5)"><text x="0" y="0" font-family="Virgil, Segoe UI Emoji" font-size="20px" fill="#1e1e1e" text-anchor="start" style="white-space: pre;" direction="ltr" dominant-baseline="text-before-edge">tinyproxy:8000</text></g><g stroke-linecap="round" transform="translate(438.0357142857143 10) rotate(0 283.5 314.99999999999994)"><path d="M32 0 C198.39 0.47, 364.37 1.5, 535 0 M32 0 C154.45 -0.89, 276.39 -0.69, 535 0 M535 0 C554.9 -1.61, 567.06 11.02, 567 32 M535 0 C558.43 -1.38, 565.41 12.85, 567 32 M567 32 C568.41 186.29, 567.89 341.15, 567 598 M567 32 C568.65 221.32, 569.13 410.88, 567 598 M567 598 C566.5 618.93, 554.45 629.28, 535 630 M567 598 C568.03 619.56, 554.84 631.92, 535 630 M535 630 C432.29 632.64, 327.83 631.28, 32 630 M535 630 C381.43 629.67, 228.93 629.93, 32 630 M32 630 C10.01 631.03, 1.82 620.92, 0 598 M32 630 C10.34 630.57, 0.56 619.08, 0 598 M0 598 C-1.58 406.28, -1.93 214.14, 0 32 M0 598 C-1.92 415.53, -2.02 233.97, 0 32 M0 32 C-0.51 10.94, 11.68 1.63, 32 0 M0 32 C-2.2 12.25, 9.78 -0.37, 32 0" stroke="#1e1e1e" stroke-width="2" fill="none"></path></g><g transform="translate(781.0357142857142 36) rotate(0 73.9000015258789 12.5)"><text x="0" y="0" font-family="Virgil, Segoe UI Emoji" font-size="20px" fill="#1e1e1e" text-anchor="start" style="white-space: pre;" direction="ltr" dominant-baseline="text-before-edge">Virtual Machine</text></g><g transform="translate(672.0357142857142 131.20390011509733) rotate(0 111.23332977294922 23.924576967345104)"><text x="0" y="0" font-family="Virgil, Segoe UI Emoji" font-size="19.13966157387608px" fill="#1e1e1e" text-anchor="start" style="white-space: pre;" direction="ltr" dominant-baseline="text-before-edge">Debian Linux </text><text x="0" y="23.9245769673451" font-family="Virgil, Segoe UI Emoji" font-size="19.13966157387608px" fill="#1e1e1e" text-anchor="start" style="white-space: pre;" direction="ltr" dominant-baseline="text-before-edge">with lightweight desktop</text></g><g transform="translate(586.0357142857142 479) rotate(0 38.150001525878906 12.5)"><text x="0" y="0" font-family="Virgil, Segoe UI Emoji" font-size="20px" fill="#1e1e1e" text-anchor="start" style="white-space: pre;" direction="ltr" dominant-baseline="text-before-edge">sshd:22</text></g><g stroke-linecap="round" transform="translate(1081.7857142857142 86) rotate(0 123.75 68.125)"><path d="M32 0 C82.96 -3.34, 134.13 -3.49, 215.5 0 M32 0 C89.14 -1.26, 148.54 -2.02, 215.5 0 M215.5 0 C237.82 -0.22, 245.98 10.91, 247.5 32 M215.5 0 C237.22 -1.34, 247.55 11.26, 247.5 32 M247.5 32 C248.82 48.44, 248.15 62.37, 247.5 104.25 M247.5 32 C247.62 48.59, 248.21 66.92, 247.5 104.25 M247.5 104.25 C245.56 124.29, 237.16 137.39, 215.5 136.25 M247.5 104.25 C247.23 125.65, 237.93 136.91, 215.5 136.25 M215.5 136.25 C148.99 134.06, 82.73 134.13, 32 136.25 M215.5 136.25 C177.32 138.33, 138.07 137.08, 32 136.25 M32 136.25 C9.79 137.65, -0.12 127.08, 0 104.25 M32 136.25 C9.49 136.02, 0.66 126.85, 0 104.25 M0 104.25 C0.36 84.36, 0.1 67.4, 0 32 M0 104.25 C-0.16 79.94, 0.78 55.83, 0 32 M0 32 C1.25 10.95, 12.32 -0.48, 32 0 M0 32 C-0.66 11.32, 9.29 -0.68, 32 0" stroke="#1e1e1e" stroke-width="2" fill="none"></path></g><g transform="translate(1119.2857142857142 141) rotate(0 60.19166564941406 12.5)"><text x="0" y="0" font-family="Virgil, Segoe UI Emoji" font-size="20px" fill="#1e1e1e" text-anchor="start" style="white-space: pre;" direction="ltr" dominant-baseline="text-before-edge">bugs.internal</text></g><g stroke-linecap="round" transform="translate(1093.0357142857142 494.125) rotate(0 123.75 68.125)"><path d="M32 0 C104.16 1.5, 172.49 0.3, 215.5 0 M32 0 C70.26 0.4, 106.98 0.15, 215.5 0 M215.5 0 C238.36 1.46, 249.4 10.22, 247.5 32 M215.5 0 C239.08 1.66, 247.85 9.44, 247.5 32 M247.5 32 C246.47 55.51, 248.43 77.98, 247.5 104.25 M247.5 32 C247.43 48.35, 248.57 65.14, 247.5 104.25 M247.5 104.25 C248.64 124.88, 237.74 137.32, 215.5 136.25 M247.5 104.25 C245.86 124.29, 237.35 138.1, 215.5 136.25 M215.5 136.25 C156.84 135.41, 99.27 135.87, 32 136.25 M215.5 136.25 C145.77 134.91, 75.72 136.22, 32 136.25 M32 136.25 C10.19 136.27, 1.65 124.57, 0 104.25 M32 136.25 C12.75 136.93, 1.68 124.78, 0 104.25 M0 104.25 C-1.08 81.56, 0.57 60.69, 0 32 M0 104.25 C0.75 78.95, 0.53 52.08, 0 32 M0 32 C-1.15 11.29, 10.28 -0.25, 32 0 M0 32 C-1.25 10.65, 11.69 2.15, 32 0" stroke="#1e1e1e" stroke-width="2" fill="none"></path></g><g transform="translate(1102.8440486363002 531) rotate(0 89.09166717529297 12.5)"><text x="0" y="0" font-family="Virgil, Segoe UI Emoji" font-size="20px" fill="#1e1e1e" text-anchor="start" style="white-space: pre;" direction="ltr" dominant-baseline="text-before-edge">accounting.internal</text></g><g stroke-linecap="round"><g transform="translate(976.7857142857142 229.75) rotate(0 51.25 -40.770871984365954)"><path d="M-0.27 -1.09 C16.65 -14.73, 84.47 -69.29, 101.77 -82.73 M1.79 0.95 C19.07 -12.51, 87.18 -68.24, 104.1 -81.82" stroke="#1e1e1e" stroke-width="2" fill="none"></path></g><g transform="translate(976.7857142857142 229.75) rotate(0 51.25 -40.770871984365954)"><path d="M91.24 -60.38 C93.73 -68.49, 97.72 -72.5, 104.1 -81.82 M91.24 -60.38 C95.67 -67.22, 98.83 -71.96, 104.1 -81.82" stroke="#1e1e1e" stroke-width="2" fill="none"></path></g><g transform="translate(976.7857142857142 229.75) rotate(0 51.25 -40.770871984365954)"><path d="M80.47 -73.66 C86.34 -77.46, 93.81 -77.18, 104.1 -81.82 M80.47 -73.66 C88.05 -76.79, 94.25 -77.78, 104.1 -81.82" stroke="#1e1e1e" stroke-width="2" fill="none"></path></g></g><mask></mask><g stroke-linecap="round"><g transform="translate(976.7857142857142 374.75) rotate(0 134.89034839485782 54.0625)"><path d="M0.43 1 C45.42 18.94, 224.66 89.56, 269.39 107.28 M-0.8 0.49 C44.05 18.58, 222.9 90.41, 268.23 108.37" stroke="#1e1e1e" stroke-width="2" fill="none"></path></g><g transform="translate(976.7857142857142 374.75) rotate(0 134.89034839485782 54.0625)"><path d="M243.25 107.6 C251.24 107.05, 254.47 106.31, 268.23 108.37 M243.25 107.6 C249.72 107.89, 254.98 108.68, 268.23 108.37" stroke="#1e1e1e" stroke-width="2" fill="none"></path></g><g transform="translate(976.7857142857142 374.75) rotate(0 134.89034839485782 54.0625)"><path d="M249.59 91.72 C255.93 95.21, 257.57 98.48, 268.23 108.37 M249.59 91.72 C254.53 95.68, 258.31 100.18, 268.23 108.37" stroke="#1e1e1e" stroke-width="2" fill="none"></path></g></g><mask></mask><g stroke-linecap="round" transform="translate(10 198.58928571428567) rotate(0 104.28735255570116 57.41071428571428)"><path d="M28.71 0 C75.3 -2.42, 116.91 -1.62, 179.87 0 M28.71 0 C61.11 1.28, 94.71 0.08, 179.87 0 M179.87 0 C197.37 -1.3, 210.16 11.2, 208.57 28.71 M179.87 0 C199.1 -1.47, 207.83 10.9, 208.57 28.71 M208.57 28.71 C209.74 45.83, 207 61.68, 208.57 86.12 M208.57 28.71 C208.11 43.36, 207.93 57.96, 208.57 86.12 M208.57 86.12 C208.46 105.06, 197.21 113.19, 179.87 114.82 M208.57 86.12 C210.05 107, 199.23 112.63, 179.87 114.82 M179.87 114.82 C145.69 115.83, 116.13 113.15, 28.71 114.82 M179.87 114.82 C145.61 113.75, 110.97 113.25, 28.71 114.82 M28.71 114.82 C9.98 113.5, 0.43 105.17, 0 86.12 M28.71 114.82 C7.9 114.87, -0.09 106.49, 0 86.12 M0 86.12 C1.29 70.72, -1.08 55.3, 0 28.71 M0 86.12 C-0.86 65.5, -0.12 46.57, 0 28.71 M0 28.71 C-0.71 9.76, 11.13 -1.57, 28.71 0 M0 28.71 C0.73 9.86, 9.84 0.42, 28.71 0" stroke="#1e1e1e" stroke-width="2" fill="none"></path></g><g transform="translate(64.02054858640702 240.88450196592396) rotate(0 39.088446235906716 10.53407601572738)"><text x="0" y="0" font-family="Virgil, Segoe UI Emoji" font-size="16.854521625163827px" fill="#1e1e1e" text-anchor="start" style="white-space: pre;" direction="ltr" dominant-baseline="text-before-edge">my laptop</text></g><g mask="url(#mask-3s81o1ks-almcway3Xe9R)" stroke-linecap="round"><g transform="translate(222.32142857142847 250.30234121938457) rotate(0 169.28571428571422 53.563115104593436)"><path d="M1.09 -0.18 C57.48 17.8, 282.14 90.2, 338.2 108.24 M0.2 -1.33 C56.42 16.32, 280.46 88.79, 337.05 106.7" stroke="#1e1e1e" stroke-width="2" fill="none"></path></g><g transform="translate(222.32142857142847 250.30234121938457) rotate(0 169.28571428571422 53.563115104593436)"><path d="M312.07 107.67 C318.87 106.55, 328.14 105.01, 337.05 106.7 M312.07 107.67 C322.02 107.71, 331.59 107.58, 337.05 106.7" stroke="#1e1e1e" stroke-width="2" fill="none"></path></g><g transform="translate(222.32142857142847 250.30234121938457) rotate(0 169.28571428571422 53.563115104593436)"><path d="M317.29 91.39 C322.65 94.94, 330.43 98.04, 337.05 106.7 M317.29 91.39 C325.25 97.48, 332.87 103.43, 337.05 106.7" stroke="#1e1e1e" stroke-width="2" fill="none"></path></g></g><mask id="mask-3s81o1ks-almcway3Xe9R"><rect x="0" y="0" fill="#fff" width="660.8928571428569" height="457.42857142857144"></rect><rect x="370.4321436200821" y="291.3654563239781" fill="#000" width="42.349998474121094" height="25" opacity="1"></rect></mask><g transform="translate(370.4321436200821 291.36545632397804) rotate(0 21.08565204754936 12.39181510619352)"><text x="21.174999237060547" y="0" font-family="Virgil, Segoe UI Emoji" font-size="20px" fill="#1e1e1e" text-anchor="middle" style="white-space: pre;" direction="ltr" dominant-baseline="text-before-edge">http</text></g><g mask="url(#mask-vQBmaiVH35Tz0y1hiwqjj)" stroke-linecap="round"><g transform="translate(225.17857142857147 260.4090154698998) rotate(0 163.5714285714285 105.82335346323788)"><path d="M-1.1 -0.19 C53.16 34.91, 272.09 175.76, 326.66 211.23 M0.52 -1.34 C54.48 33.87, 270.74 177.18, 325.45 212.54" stroke="#1e1e1e" stroke-width="2" fill="none"></path></g><g transform="translate(225.17857142857147 260.4090154698998) rotate(0 163.5714285714285 105.82335346323788)"><path d="M301.12 206.82 C310.37 208.47, 319.53 210.14, 325.45 212.54 M301.12 206.82 C311.44 208.12, 318.94 212.22, 325.45 212.54" stroke="#1e1e1e" stroke-width="2" fill="none"></path></g><g transform="translate(225.17857142857147 260.4090154698998) rotate(0 163.5714285714285 105.82335346323788)"><path d="M310.49 192.51 C316.14 199.69, 321.63 206.97, 325.45 212.54 M310.49 192.51 C317.31 199.28, 321.22 208.85, 325.45 212.54" stroke="#1e1e1e" stroke-width="2" fill="none"></path></g></g><mask id="mask-vQBmaiVH35Tz0y1hiwqjj"><rect x="0" y="0" fill="#fff" width="652.3214285714284" height="572.0557223963756"></rect><rect x="372.9416666030884" y="353.73236893313776" fill="#000" width="31.616666793823242" height="25" opacity="1"></rect></mask><g transform="translate(372.9416666030884 353.7323689331377) rotate(0 15.013464698195406 12.277803167840489)"><text x="15.808333396911621" y="0" font-family="Virgil, Segoe UI Emoji" font-size="20px" fill="#1e1e1e" text-anchor="middle" style="white-space: pre;" direction="ltr" dominant-baseline="text-before-edge">ssh</text></g></svg>