<?xml version='1.0' encoding='UTF-8'?>
<!DOCTYPE svg PUBLIC "-//W3C//DTD SVG 1.0//EN" "http://www.w3.org/TR/2001/REC-SVG-20010904/DTD/svg10.dtd">
<svg viewBox="0 0 832 280" xmlns="http://www.w3.org/2000/svg" xmlns:inkspace="http://www.inkscape.org/namespaces/inkscape" xmlns:xlink="http://www.w3.org/1999/xlink">
  <defs id="defs_block">
    <filter height="1.504" id="filter_blur" inkspace:collect="always" width="1.1575" x="-0.07875" y="-0.252">
      <feGaussianBlur id="feGaussianBlur3780" inkspace:collect="always" stdDeviation="4.2" />
    </filter>
  </defs>
  <title>blockdiag</title>
  <desc>blockdiag {
    user [shape = actor, color="green", label="User"];
    internet [shape = cloud];

    public.server22 [label="public.server:22"];
    internal.server22 [label="internal.server:22"];
    tunnel3 [label="tunnel:6662"];
    tunnel2 [label="tunnel:7780"];
    tunnel1 [label="tunnel:7780"];

    user -&gt; public.server22 -&gt; tunnel3 -&gt; internal.server22;

    browser -&gt; tunnel1 -&gt; tunnel2 -&gt; proxy7780;

}
</desc>
  <polygon fill="rgb(0,0,0)" points="133,60 133,63 143,63 143,66 133,66 133,69 141,78 137,78 131,72 125,78 121,78 129,69 129,66 119,66 119,63 129,63 129,60" style="filter:url(#filter_blur);opacity:0.7;fill-opacity:1" />
  <ellipse cx="131" cy="57" fill="rgb(0,0,0)" rx="4" ry="4" stroke="rgb(0,0,0)" style="filter:url(#filter_blur);opacity:0.7;fill-opacity:1" />
  <path d="M 87 142 A20,8 0 0 1 107 134 A20,6 0 0 1 157 134 A20,8 0 0 1 177 142 A20,8 0 0 1 177 158 A20,20 0 0 1 147 158 A20,20 0 0 1 117 158 A20,20 0 0 1 87 158 A20,8 0 0 1 87 142" fill="rgb(0,0,0)" stroke="rgb(0,0,0)" style="filter:url(#filter_blur);opacity:0.7;fill-opacity:1" />
  <rect fill="rgb(0,0,0)" height="40" stroke="rgb(0,0,0)" style="filter:url(#filter_blur);opacity:0.7;fill-opacity:1" width="128" x="259" y="46" />
  <rect fill="rgb(0,0,0)" height="40" stroke="rgb(0,0,0)" style="filter:url(#filter_blur);opacity:0.7;fill-opacity:1" width="128" x="643" y="46" />
  <rect fill="rgb(0,0,0)" height="40" stroke="rgb(0,0,0)" style="filter:url(#filter_blur);opacity:0.7;fill-opacity:1" width="128" x="451" y="46" />
  <rect fill="rgb(0,0,0)" height="40" stroke="rgb(0,0,0)" style="filter:url(#filter_blur);opacity:0.7;fill-opacity:1" width="128" x="451" y="206" />
  <rect fill="rgb(0,0,0)" height="40" stroke="rgb(0,0,0)" style="filter:url(#filter_blur);opacity:0.7;fill-opacity:1" width="128" x="259" y="206" />
  <rect fill="rgb(0,0,0)" height="40" stroke="rgb(0,0,0)" style="filter:url(#filter_blur);opacity:0.7;fill-opacity:1" width="128" x="67" y="206" />
  <rect fill="rgb(0,0,0)" height="40" stroke="rgb(0,0,0)" style="filter:url(#filter_blur);opacity:0.7;fill-opacity:1" width="128" x="643" y="206" />
  <polygon fill="rgb(0,128,0)" points="130,54 130,57 140,57 140,60 130,60 130,63 138,72 134,72 128,66 122,72 118,72 126,63 126,60 116,60 116,57 126,57 126,54" stroke="rgb(0,0,0)" />
  <ellipse cx="128" cy="51" fill="rgb(0,128,0)" rx="4" ry="4" stroke="rgb(0,0,0)" />
  <text fill="rgb(0,0,0)" font-family="sans-serif" font-size="11" font-style="normal" font-weight="normal" text-anchor="middle" textLength="24" x="128" y="85">User</text>
  <path d="M 84 136 A20,8 0 0 1 104 128 A20,6 0 0 1 154 128 A20,8 0 0 1 174 136 A20,8 0 0 1 174 152 A20,20 0 0 1 144 152 A20,20 0 0 1 114 152 A20,20 0 0 1 84 152 A20,8 0 0 1 84 136" fill="rgb(255,255,255)" stroke="rgb(0,0,0)" />
  <text fill="rgb(0,0,0)" font-family="sans-serif" font-size="11" font-style="normal" font-weight="normal" text-anchor="middle" textLength="44" x="129" y="146">internet</text>
  <rect fill="rgb(255,255,255)" height="40" stroke="rgb(0,0,0)" width="128" x="256" y="40" />
  <text fill="rgb(0,0,0)" font-family="sans-serif" font-size="11" font-style="normal" font-weight="normal" text-anchor="middle" textLength="84" x="320" y="67">public.server:22</text>
  <rect fill="rgb(255,255,255)" height="40" stroke="rgb(0,0,0)" width="128" x="640" y="40" />
  <text fill="rgb(0,0,0)" font-family="sans-serif" font-size="11" font-style="normal" font-weight="normal" text-anchor="middle" textLength="96" x="704" y="66">internal.server:22</text>
  <rect fill="rgb(255,255,255)" height="40" stroke="rgb(0,0,0)" width="128" x="448" y="40" />
  <text fill="rgb(0,0,0)" font-family="sans-serif" font-size="11" font-style="normal" font-weight="normal" text-anchor="middle" textLength="65" x="512" y="66">tunnel:6662</text>
  <rect fill="rgb(255,255,255)" height="40" stroke="rgb(0,0,0)" width="128" x="448" y="200" />
  <text fill="rgb(0,0,0)" font-family="sans-serif" font-size="11" font-style="normal" font-weight="normal" text-anchor="middle" textLength="65" x="512" y="226">tunnel:7780</text>
  <rect fill="rgb(255,255,255)" height="40" stroke="rgb(0,0,0)" width="128" x="256" y="200" />
  <text fill="rgb(0,0,0)" font-family="sans-serif" font-size="11" font-style="normal" font-weight="normal" text-anchor="middle" textLength="65" x="320" y="226">tunnel:7780</text>
  <rect fill="rgb(255,255,255)" height="40" stroke="rgb(0,0,0)" width="128" x="64" y="200" />
  <text fill="rgb(0,0,0)" font-family="sans-serif" font-size="11" font-style="normal" font-weight="normal" text-anchor="middle" textLength="43" x="128" y="226">browser</text>
  <rect fill="rgb(255,255,255)" height="40" stroke="rgb(0,0,0)" width="128" x="640" y="200" />
  <text fill="rgb(0,0,0)" font-family="sans-serif" font-size="11" font-style="normal" font-weight="normal" text-anchor="middle" textLength="57" x="704" y="227">proxy7780</text>
  <path d="M 140 60 L 248 60" fill="none" stroke="rgb(0,0,0)" />
  <polygon fill="rgb(0,0,0)" points="255,60 248,56 248,64 255,60" stroke="rgb(0,0,0)" />
  <path d="M 384 60 L 440 60" fill="none" stroke="rgb(0,0,0)" />
  <polygon fill="rgb(0,0,0)" points="447,60 440,56 440,64 447,60" stroke="rgb(0,0,0)" />
  <path d="M 576 60 L 632 60" fill="none" stroke="rgb(0,0,0)" />
  <polygon fill="rgb(0,0,0)" points="639,60 632,56 632,64 639,60" stroke="rgb(0,0,0)" />
  <path d="M 576 220 L 632 220" fill="none" stroke="rgb(0,0,0)" />
  <polygon fill="rgb(0,0,0)" points="639,220 632,216 632,224 639,220" stroke="rgb(0,0,0)" />
  <path d="M 384 220 L 440 220" fill="none" stroke="rgb(0,0,0)" />
  <polygon fill="rgb(0,0,0)" points="447,220 440,216 440,224 447,220" stroke="rgb(0,0,0)" />
  <path d="M 192 220 L 248 220" fill="none" stroke="rgb(0,0,0)" />
  <polygon fill="rgb(0,0,0)" points="255,220 248,216 248,224 255,220" stroke="rgb(0,0,0)" />
</svg>
