<?xml version='1.0' encoding='UTF-8'?>
<!DOCTYPE svg PUBLIC "-//W3C//DTD SVG 1.0//EN" "http://www.w3.org/TR/2001/REC-SVG-20010904/DTD/svg10.dtd">
<svg viewBox="0 0 1216 1000" xmlns="http://www.w3.org/2000/svg" xmlns:inkspace="http://www.inkscape.org/namespaces/inkscape" xmlns:xlink="http://www.w3.org/1999/xlink">
  <defs id="defs_block">
    <filter height="1.504" id="filter_blur" inkspace:collect="always" width="1.1575" x="-0.07875" y="-0.252">
      <feGaussianBlur id="feGaussianBlur3780" inkspace:collect="always" stdDeviation="4.2" />
    </filter>
  </defs>
  <title>blockdiag</title>
  <desc>blockdiag {

  internet [shape = "cloud"];
  db1 [shape = "flowchart.database"];
  db2 [shape = "flowchart.database"];
  editors [shape = "actor" ];
  imports -&gt; edit2 [label="imports"];
  editors -&gt; edit1 [label="works"];

  cache1, cache2 [color="green"];
  edit1, edit2, pres1, pres2, pres3, pres4 [color="orange"];
  analysis1 [color="yellow"];
  
  internet -&gt; load-balancer;
  load-balancer -&gt; cache1, cache2;
  cache1, cache2 -&gt; pres1, pres2, pres3, pres4;
  edit1, edit2, pres1, pres2, pres3, pres4 -&gt; db1, nfs1, analysis1;
  pres1, pres2, pres3, pres4 -&gt; memcached;
  monitoring -&gt; cache1, cache2, edit1, edit2, pres1, pres2, pres3, pres4, db1, db2, analysis1, analysisdb;
  backup-server -&gt; cache1, cache2, edit1, edit2, pres1, pres2, pres3, pres4, db1, db2, analysis1, analysisdb;
  
  
  nfs1 &lt;- nfs2 [label = "syncs"];
  db1 &lt;- db2 [label = "syncs"];
  analysisdb [shape = "flowchart.database"];
  analysis1 -&gt; analysisdb;
  
  
}</desc>
  <path d="M 87 62 A20,8 0 0 1 107 54 A20,6 0 0 1 157 54 A20,8 0 0 1 177 62 A20,8 0 0 1 177 78 A20,20 0 0 1 147 78 A20,20 0 0 1 117 78 A20,20 0 0 1 87 78 A20,8 0 0 1 87 62" fill="rgb(0,0,0)" stroke="rgb(0,0,0)" style="filter:url(#filter_blur);opacity:0.7;fill-opacity:1" />
  <path d="M 835 54 A64,8 0 0 1 963 54 L 963 78 A64,8 0 0 1 835 78 L 835 54" fill="rgb(0,0,0)" stroke="rgb(0,0,0)" style="filter:url(#filter_blur);opacity:0.7;fill-opacity:1" />
  <rect fill="rgb(0,0,0)" height="40" stroke="rgb(0,0,0)" style="filter:url(#filter_blur);opacity:0.7;fill-opacity:1" width="128" x="835" y="126" />
  <rect fill="rgb(0,0,0)" height="40" stroke="rgb(0,0,0)" style="filter:url(#filter_blur);opacity:0.7;fill-opacity:1" width="128" x="835" y="206" />
  <polygon fill="rgb(0,0,0)" points="134,696 134,701 151,701 151,706 134,706 134,711 148,726 141,726 131,716 121,726 114,726 128,711 128,706 111,706 111,701 128,701 128,696" style="filter:url(#filter_blur);opacity:0.7;fill-opacity:1" />
  <ellipse cx="131" cy="691" fill="rgb(0,0,0)" rx="7" ry="7" stroke="rgb(0,0,0)" style="filter:url(#filter_blur);opacity:0.7;fill-opacity:1" />
  <rect fill="rgb(0,0,0)" height="40" stroke="rgb(0,0,0)" style="filter:url(#filter_blur);opacity:0.7;fill-opacity:1" width="128" x="67" y="766" />
  <rect fill="rgb(0,0,0)" height="40" stroke="rgb(0,0,0)" style="filter:url(#filter_blur);opacity:0.7;fill-opacity:1" width="128" x="67" y="846" />
  <rect fill="rgb(0,0,0)" height="40" stroke="rgb(0,0,0)" style="filter:url(#filter_blur);opacity:0.7;fill-opacity:1" width="128" x="67" y="926" />
  <rect fill="rgb(0,0,0)" height="40" stroke="rgb(0,0,0)" style="filter:url(#filter_blur);opacity:0.7;fill-opacity:1" width="128" x="259" y="766" />
  <rect fill="rgb(0,0,0)" height="40" stroke="rgb(0,0,0)" style="filter:url(#filter_blur);opacity:0.7;fill-opacity:1" width="128" x="259" y="686" />
  <rect fill="rgb(0,0,0)" height="40" stroke="rgb(0,0,0)" style="filter:url(#filter_blur);opacity:0.7;fill-opacity:1" width="128" x="451" y="46" />
  <rect fill="rgb(0,0,0)" height="40" stroke="rgb(0,0,0)" style="filter:url(#filter_blur);opacity:0.7;fill-opacity:1" width="128" x="451" y="606" />
  <rect fill="rgb(0,0,0)" height="40" stroke="rgb(0,0,0)" style="filter:url(#filter_blur);opacity:0.7;fill-opacity:1" width="128" x="643" y="46" />
  <rect fill="rgb(0,0,0)" height="40" stroke="rgb(0,0,0)" style="filter:url(#filter_blur);opacity:0.7;fill-opacity:1" width="128" x="643" y="366" />
  <rect fill="rgb(0,0,0)" height="40" stroke="rgb(0,0,0)" style="filter:url(#filter_blur);opacity:0.7;fill-opacity:1" width="128" x="643" y="446" />
  <rect fill="rgb(0,0,0)" height="40" stroke="rgb(0,0,0)" style="filter:url(#filter_blur);opacity:0.7;fill-opacity:1" width="128" x="643" y="526" />
  <rect fill="rgb(0,0,0)" height="40" stroke="rgb(0,0,0)" style="filter:url(#filter_blur);opacity:0.7;fill-opacity:1" width="128" x="835" y="286" />
  <path d="M 1027 294 A64,8 0 0 1 1155 294 L 1155 318 A64,8 0 0 1 1027 318 L 1027 294" fill="rgb(0,0,0)" stroke="rgb(0,0,0)" style="filter:url(#filter_blur);opacity:0.7;fill-opacity:1" />
  <path d="M 1027 54 A64,8 0 0 1 1155 54 L 1155 78 A64,8 0 0 1 1027 78 L 1027 54" fill="rgb(0,0,0)" stroke="rgb(0,0,0)" style="filter:url(#filter_blur);opacity:0.7;fill-opacity:1" />
  <rect fill="rgb(0,0,0)" height="40" stroke="rgb(0,0,0)" style="filter:url(#filter_blur);opacity:0.7;fill-opacity:1" width="128" x="259" y="46" />
  <rect fill="rgb(0,0,0)" height="40" stroke="rgb(0,0,0)" style="filter:url(#filter_blur);opacity:0.7;fill-opacity:1" width="128" x="1027" y="126" />
  <path d="M 84 56 A20,8 0 0 1 104 48 A20,6 0 0 1 154 48 A20,8 0 0 1 174 56 A20,8 0 0 1 174 72 A20,20 0 0 1 144 72 A20,20 0 0 1 114 72 A20,20 0 0 1 84 72 A20,8 0 0 1 84 56" fill="rgb(255,255,255)" stroke="rgb(0,0,0)" />
  <text fill="rgb(0,0,0)" font-family="sansserif" font-size="11" font-style="normal" font-weight="normal" x="105" y="66">internet</text>
  <path d="M 832 48 A64,8 0 0 1 960 48 L 960 72 A64,8 0 0 1 832 72 L 832 48" fill="rgb(255,255,255)" stroke="rgb(0,0,0)" />
  <path d="M 960 48 A64,8 0 0 1 832 48" fill="rgb(255,255,255)" stroke="rgb(0,0,0)" />
  <text fill="rgb(0,0,0)" font-family="sansserif" font-size="11" font-style="normal" font-weight="normal" x="887" y="70">db1</text>
  <rect fill="rgb(255,255,255)" height="40" stroke="rgb(0,0,0)" width="128" x="832" y="120" />
  <text fill="rgb(0,0,0)" font-family="sansserif" font-size="11" font-style="normal" font-weight="normal" x="884" y="146">nfs1</text>
  <rect fill="rgb(255,255,255)" height="40" stroke="rgb(0,0,0)" width="128" x="832" y="200" />
  <text fill="rgb(0,0,0)" font-family="sansserif" font-size="11" font-style="normal" font-weight="normal" x="869" y="226">memcached</text>
  <polygon fill="rgb(255,255,255)" points="131,690 131,695 148,695 148,700 131,700 131,705 145,720 138,720 128,710 118,720 111,720 125,705 125,700 108,700 108,695 125,695 125,690" stroke="rgb(0,0,0)" />
  <ellipse cx="128" cy="685" fill="rgb(255,255,255)" rx="7" ry="7" stroke="rgb(0,0,0)" />
  <rect fill="rgb(255,255,255)" height="40" stroke="rgb(0,0,0)" width="128" x="64" y="760" />
  <text fill="rgb(0,0,0)" font-family="sansserif" font-size="11" font-style="normal" font-weight="normal" x="98" y="786">monitoring</text>
  <rect fill="rgb(255,255,255)" height="40" stroke="rgb(0,0,0)" width="128" x="64" y="840" />
  <text fill="rgb(0,0,0)" font-family="sansserif" font-size="11" font-style="normal" font-weight="normal" x="89" y="866">backup-server</text>
  <rect fill="rgb(255,255,255)" height="40" stroke="rgb(0,0,0)" width="128" x="64" y="920" />
  <text fill="rgb(0,0,0)" font-family="sansserif" font-size="11" font-style="normal" font-weight="normal" x="107" y="946">imports</text>
  <rect fill="rgb(255,165,0)" height="40" stroke="rgb(0,0,0)" width="128" x="256" y="760" />
  <text fill="rgb(0,0,0)" font-family="sansserif" font-size="11" font-style="normal" font-weight="normal" x="305" y="786">edit2</text>
  <rect fill="rgb(255,165,0)" height="40" stroke="rgb(0,0,0)" width="128" x="256" y="680" />
  <text fill="rgb(0,0,0)" font-family="sansserif" font-size="11" font-style="normal" font-weight="normal" x="305" y="706">edit1</text>
  <rect fill="rgb(0,128,0)" height="40" stroke="rgb(0,0,0)" width="128" x="448" y="40" />
  <text fill="rgb(0,0,0)" font-family="sansserif" font-size="11" font-style="normal" font-weight="normal" x="494" y="66">cache1</text>
  <rect fill="rgb(0,128,0)" height="40" stroke="rgb(0,0,0)" width="128" x="448" y="600" />
  <text fill="rgb(0,0,0)" font-family="sansserif" font-size="11" font-style="normal" font-weight="normal" x="494" y="626">cache2</text>
  <rect fill="rgb(255,165,0)" height="40" stroke="rgb(0,0,0)" width="128" x="640" y="40" />
  <text fill="rgb(0,0,0)" font-family="sansserif" font-size="11" font-style="normal" font-weight="normal" x="689" y="66">pres1</text>
  <rect fill="rgb(255,165,0)" height="40" stroke="rgb(0,0,0)" width="128" x="640" y="360" />
  <text fill="rgb(0,0,0)" font-family="sansserif" font-size="11" font-style="normal" font-weight="normal" x="689" y="386">pres2</text>
  <rect fill="rgb(255,165,0)" height="40" stroke="rgb(0,0,0)" width="128" x="640" y="440" />
  <text fill="rgb(0,0,0)" font-family="sansserif" font-size="11" font-style="normal" font-weight="normal" x="689" y="466">pres3</text>
  <rect fill="rgb(255,165,0)" height="40" stroke="rgb(0,0,0)" width="128" x="640" y="520" />
  <text fill="rgb(0,0,0)" font-family="sansserif" font-size="11" font-style="normal" font-weight="normal" x="689" y="546">pres4</text>
  <rect fill="rgb(255,255,0)" height="40" stroke="rgb(0,0,0)" width="128" x="832" y="280" />
  <text fill="rgb(0,0,0)" font-family="sansserif" font-size="11" font-style="normal" font-weight="normal" x="869" y="306">analysis1</text>
  <path d="M 1024 288 A64,8 0 0 1 1152 288 L 1152 312 A64,8 0 0 1 1024 312 L 1024 288" fill="rgb(255,255,255)" stroke="rgb(0,0,0)" />
  <path d="M 1152 288 A64,8 0 0 1 1024 288" fill="rgb(255,255,255)" stroke="rgb(0,0,0)" />
  <text fill="rgb(0,0,0)" font-family="sansserif" font-size="11" font-style="normal" font-weight="normal" x="1058" y="310">analysisdb</text>
  <path d="M 1024 48 A64,8 0 0 1 1152 48 L 1152 72 A64,8 0 0 1 1024 72 L 1024 48" fill="rgb(255,255,255)" stroke="rgb(0,0,0)" />
  <path d="M 1152 48 A64,8 0 0 1 1024 48" fill="rgb(255,255,255)" stroke="rgb(0,0,0)" />
  <text fill="rgb(0,0,0)" font-family="sansserif" font-size="11" font-style="normal" font-weight="normal" x="1079" y="70">db2</text>
  <rect fill="rgb(255,255,255)" height="40" stroke="rgb(0,0,0)" width="128" x="256" y="40" />
  <text fill="rgb(0,0,0)" font-family="sansserif" font-size="11" font-style="normal" font-weight="normal" x="281" y="66">load-balancer</text>
  <rect fill="rgb(255,255,255)" height="40" stroke="rgb(0,0,0)" width="128" x="1024" y="120" />
  <text fill="rgb(0,0,0)" font-family="sansserif" font-size="11" font-style="normal" font-weight="normal" x="1076" y="146">nfs2</text>
  <path d="M 192 60 L 248 60" fill="none" stroke="rgb(0,0,0)" />
  <polygon fill="rgb(0,0,0)" points="255,60 248,56 248,64 255,60" stroke="rgb(0,0,0)" />
  <path d="M 968 60 L 1024 60" fill="none" stroke="rgb(0,0,0)" />
  <polygon fill="rgb(0,0,0)" points="961,60 968,56 968,64 961,60" stroke="rgb(0,0,0)" />
  <rect fill="white" height="15" stroke="rgb(0,0,0)" width="46" x="969" y="38" />
  <text fill="rgb(0,0,0)" font-family="sansserif" font-size="11" font-style="normal" font-weight="normal" x="977" y="51">syncs</text>
  <path d="M 148 700 L 220 700" fill="none" stroke="rgb(0,0,0)" />
  <path d="M 220.0 700.0 A4,4 0 0 1 228.0 700.0" fill="none" stroke="rgb(0,0,0)" />
  <path d="M 228 700 L 248 700" fill="none" stroke="rgb(0,0,0)" />
  <polygon fill="rgb(0,0,0)" points="255,700 248,696 248,704 255,700" stroke="rgb(0,0,0)" />
  <rect fill="white" height="15" stroke="rgb(0,0,0)" width="46" x="201" y="678" />
  <text fill="rgb(0,0,0)" font-family="sansserif" font-size="11" font-style="normal" font-weight="normal" x="209" y="691">works</text>
  <path d="M 192 940 L 240 940" fill="none" stroke="rgb(0,0,0)" />
  <path d="M 240 940 L 240 780" fill="none" stroke="rgb(0,0,0)" />
  <path d="M 240 780 L 248 780" fill="none" stroke="rgb(0,0,0)" />
  <polygon fill="rgb(0,0,0)" points="255,780 248,776 248,784 255,780" stroke="rgb(0,0,0)" />
  <rect fill="white" height="15" stroke="rgb(0,0,0)" width="58" x="195" y="903" />
  <text fill="rgb(0,0,0)" font-family="sansserif" font-size="11" font-style="normal" font-weight="normal" x="203" y="916">imports</text>
  <path d="M 384 780 L 428 780" fill="none" stroke="rgb(0,0,0)" />
  <path d="M 428.0 780.0 A4,4 0 0 1 436.0 780.0" fill="none" stroke="rgb(0,0,0)" />
  <path d="M 436 780 L 620 780" fill="none" stroke="rgb(0,0,0)" />
  <path d="M 620.0 780.0 A4,4 0 0 1 628.0 780.0" fill="none" stroke="rgb(0,0,0)" />
  <path d="M 628 780 L 816 780" fill="none" stroke="rgb(0,0,0)" />
  <path d="M 816 780 L 816 60" fill="none" stroke="rgb(0,0,0)" />
  <path d="M 816 60 L 824 60" fill="none" stroke="rgb(0,0,0)" />
  <polygon fill="rgb(0,0,0)" points="831,60 824,56 824,64 831,60" stroke="rgb(0,0,0)" />
  <path d="M 384 780 L 428 780" fill="none" stroke="rgb(0,0,0)" />
  <path d="M 428.0 780.0 A4,4 0 0 1 436.0 780.0" fill="none" stroke="rgb(0,0,0)" />
  <path d="M 436 780 L 620 780" fill="none" stroke="rgb(0,0,0)" />
  <path d="M 620.0 780.0 A4,4 0 0 1 628.0 780.0" fill="none" stroke="rgb(0,0,0)" />
  <path d="M 628 780 L 816 780" fill="none" stroke="rgb(0,0,0)" />
  <path d="M 816 780 L 816 140" fill="none" stroke="rgb(0,0,0)" />
  <path d="M 816 140 L 824 140" fill="none" stroke="rgb(0,0,0)" />
  <polygon fill="rgb(0,0,0)" points="831,140 824,136 824,144 831,140" stroke="rgb(0,0,0)" />
  <path d="M 384 780 L 428 780" fill="none" stroke="rgb(0,0,0)" />
  <path d="M 428.0 780.0 A4,4 0 0 1 436.0 780.0" fill="none" stroke="rgb(0,0,0)" />
  <path d="M 436 780 L 620 780" fill="none" stroke="rgb(0,0,0)" />
  <path d="M 620.0 780.0 A4,4 0 0 1 628.0 780.0" fill="none" stroke="rgb(0,0,0)" />
  <path d="M 628 780 L 816 780" fill="none" stroke="rgb(0,0,0)" />
  <path d="M 816 780 L 816 300" fill="none" stroke="rgb(0,0,0)" />
  <path d="M 816 300 L 824 300" fill="none" stroke="rgb(0,0,0)" />
  <polygon fill="rgb(0,0,0)" points="831,300 824,296 824,304 831,300" stroke="rgb(0,0,0)" />
  <path d="M 384 700 L 428 700" fill="none" stroke="rgb(0,0,0)" />
  <path d="M 428.0 700.0 A4,4 0 0 1 436.0 700.0" fill="none" stroke="rgb(0,0,0)" />
  <path d="M 436 700 L 620 700" fill="none" stroke="rgb(0,0,0)" />
  <path d="M 620.0 700.0 A4,4 0 0 1 628.0 700.0" fill="none" stroke="rgb(0,0,0)" />
  <path d="M 628 700 L 816 700" fill="none" stroke="rgb(0,0,0)" />
  <path d="M 816 700 L 816 60" fill="none" stroke="rgb(0,0,0)" />
  <path d="M 816 60 L 824 60" fill="none" stroke="rgb(0,0,0)" />
  <polygon fill="rgb(0,0,0)" points="831,60 824,56 824,64 831,60" stroke="rgb(0,0,0)" />
  <path d="M 384 700 L 428 700" fill="none" stroke="rgb(0,0,0)" />
  <path d="M 428.0 700.0 A4,4 0 0 1 436.0 700.0" fill="none" stroke="rgb(0,0,0)" />
  <path d="M 436 700 L 620 700" fill="none" stroke="rgb(0,0,0)" />
  <path d="M 620.0 700.0 A4,4 0 0 1 628.0 700.0" fill="none" stroke="rgb(0,0,0)" />
  <path d="M 628 700 L 816 700" fill="none" stroke="rgb(0,0,0)" />
  <path d="M 816 700 L 816 140" fill="none" stroke="rgb(0,0,0)" />
  <path d="M 816 140 L 824 140" fill="none" stroke="rgb(0,0,0)" />
  <polygon fill="rgb(0,0,0)" points="831,140 824,136 824,144 831,140" stroke="rgb(0,0,0)" />
  <path d="M 384 700 L 428 700" fill="none" stroke="rgb(0,0,0)" />
  <path d="M 428.0 700.0 A4,4 0 0 1 436.0 700.0" fill="none" stroke="rgb(0,0,0)" />
  <path d="M 436 700 L 620 700" fill="none" stroke="rgb(0,0,0)" />
  <path d="M 620.0 700.0 A4,4 0 0 1 628.0 700.0" fill="none" stroke="rgb(0,0,0)" />
  <path d="M 628 700 L 816 700" fill="none" stroke="rgb(0,0,0)" />
  <path d="M 816 700 L 816 300" fill="none" stroke="rgb(0,0,0)" />
  <path d="M 816 300 L 824 300" fill="none" stroke="rgb(0,0,0)" />
  <polygon fill="rgb(0,0,0)" points="831,300 824,296 824,304 831,300" stroke="rgb(0,0,0)" />
  <path d="M 576 60 L 608 60" fill="none" stroke="rgb(0,0,0)" />
  <path d="M 608 60 L 608 540" fill="none" stroke="rgb(0,0,0)" />
  <path d="M 608 540 L 620 540" fill="none" stroke="rgb(0,0,0)" />
  <path d="M 620.0 540.0 A4,4 0 0 1 628.0 540.0" fill="none" stroke="rgb(0,0,0)" />
  <path d="M 628 540 L 632 540" fill="none" stroke="rgb(0,0,0)" />
  <polygon fill="rgb(0,0,0)" points="639,540 632,536 632,544 639,540" stroke="rgb(0,0,0)" />
  <path d="M 576 60 L 608 60" fill="none" stroke="rgb(0,0,0)" />
  <path d="M 608 60 L 608 380" fill="none" stroke="rgb(0,0,0)" />
  <path d="M 608 380 L 620 380" fill="none" stroke="rgb(0,0,0)" />
  <path d="M 620.0 380.0 A4,4 0 0 1 628.0 380.0" fill="none" stroke="rgb(0,0,0)" />
  <path d="M 628 380 L 632 380" fill="none" stroke="rgb(0,0,0)" />
  <polygon fill="rgb(0,0,0)" points="639,380 632,376 632,384 639,380" stroke="rgb(0,0,0)" />
  <path d="M 576 60 L 632 60" fill="none" stroke="rgb(0,0,0)" />
  <polygon fill="rgb(0,0,0)" points="639,60 632,56 632,64 639,60" stroke="rgb(0,0,0)" />
  <path d="M 576 60 L 608 60" fill="none" stroke="rgb(0,0,0)" />
  <path d="M 608 60 L 608 460" fill="none" stroke="rgb(0,0,0)" />
  <path d="M 608 460 L 620 460" fill="none" stroke="rgb(0,0,0)" />
  <path d="M 620.0 460.0 A4,4 0 0 1 628.0 460.0" fill="none" stroke="rgb(0,0,0)" />
  <path d="M 628 460 L 632 460" fill="none" stroke="rgb(0,0,0)" />
  <polygon fill="rgb(0,0,0)" points="639,460 632,456 632,464 639,460" stroke="rgb(0,0,0)" />
  <path d="M 576 620 L 624 620" fill="none" stroke="rgb(0,0,0)" />
  <path d="M 624 620 L 624 540" fill="none" stroke="rgb(0,0,0)" />
  <path d="M 624 540 L 632 540" fill="none" stroke="rgb(0,0,0)" />
  <polygon fill="rgb(0,0,0)" points="639,540 632,536 632,544 639,540" stroke="rgb(0,0,0)" />
  <path d="M 576 620 L 624 620" fill="none" stroke="rgb(0,0,0)" />
  <path d="M 624 620 L 624 380" fill="none" stroke="rgb(0,0,0)" />
  <path d="M 624 380 L 632 380" fill="none" stroke="rgb(0,0,0)" />
  <polygon fill="rgb(0,0,0)" points="639,380 632,376 632,384 639,380" stroke="rgb(0,0,0)" />
  <path d="M 576 620 L 624 620" fill="none" stroke="rgb(0,0,0)" />
  <path d="M 624 620 L 624 60" fill="none" stroke="rgb(0,0,0)" />
  <path d="M 624 60 L 632 60" fill="none" stroke="rgb(0,0,0)" />
  <polygon fill="rgb(0,0,0)" points="639,60 632,56 632,64 639,60" stroke="rgb(0,0,0)" />
  <path d="M 576 620 L 624 620" fill="none" stroke="rgb(0,0,0)" />
  <path d="M 624 620 L 624 460" fill="none" stroke="rgb(0,0,0)" />
  <path d="M 624 460 L 632 460" fill="none" stroke="rgb(0,0,0)" />
  <polygon fill="rgb(0,0,0)" points="639,460 632,456 632,464 639,460" stroke="rgb(0,0,0)" />
  <path d="M 768 60 L 800 60" fill="none" stroke="rgb(0,0,0)" />
  <path d="M 800 60 L 800 220" fill="none" stroke="rgb(0,0,0)" />
  <path d="M 800 220 L 812 220" fill="none" stroke="rgb(0,0,0)" />
  <path d="M 812.0 220.0 A4,4 0 0 1 820.0 220.0" fill="none" stroke="rgb(0,0,0)" />
  <path d="M 820 220 L 824 220" fill="none" stroke="rgb(0,0,0)" />
  <polygon fill="rgb(0,0,0)" points="831,220 824,216 824,224 831,220" stroke="rgb(0,0,0)" />
  <path d="M 768 60 L 824 60" fill="none" stroke="rgb(0,0,0)" />
  <polygon fill="rgb(0,0,0)" points="831,60 824,56 824,64 831,60" stroke="rgb(0,0,0)" />
  <path d="M 768 60 L 800 60" fill="none" stroke="rgb(0,0,0)" />
  <path d="M 800 60 L 800 140" fill="none" stroke="rgb(0,0,0)" />
  <path d="M 800 140 L 812 140" fill="none" stroke="rgb(0,0,0)" />
  <path d="M 812.0 140.0 A4,4 0 0 1 820.0 140.0" fill="none" stroke="rgb(0,0,0)" />
  <path d="M 820 140 L 824 140" fill="none" stroke="rgb(0,0,0)" />
  <polygon fill="rgb(0,0,0)" points="831,140 824,136 824,144 831,140" stroke="rgb(0,0,0)" />
  <path d="M 768 60 L 800 60" fill="none" stroke="rgb(0,0,0)" />
  <path d="M 800 60 L 800 300" fill="none" stroke="rgb(0,0,0)" />
  <path d="M 800 300 L 812 300" fill="none" stroke="rgb(0,0,0)" />
  <path d="M 812.0 300.0 A4,4 0 0 1 820.0 300.0" fill="none" stroke="rgb(0,0,0)" />
  <path d="M 820 300 L 824 300" fill="none" stroke="rgb(0,0,0)" />
  <polygon fill="rgb(0,0,0)" points="831,300 824,296 824,304 831,300" stroke="rgb(0,0,0)" />
  <path d="M 768 380 L 816 380" fill="none" stroke="rgb(0,0,0)" />
  <path d="M 816 380 L 816 220" fill="none" stroke="rgb(0,0,0)" />
  <path d="M 816 220 L 824 220" fill="none" stroke="rgb(0,0,0)" />
  <polygon fill="rgb(0,0,0)" points="831,220 824,216 824,224 831,220" stroke="rgb(0,0,0)" />
  <path d="M 768 380 L 816 380" fill="none" stroke="rgb(0,0,0)" />
  <path d="M 816 380 L 816 60" fill="none" stroke="rgb(0,0,0)" />
  <path d="M 816 60 L 824 60" fill="none" stroke="rgb(0,0,0)" />
  <polygon fill="rgb(0,0,0)" points="831,60 824,56 824,64 831,60" stroke="rgb(0,0,0)" />
  <path d="M 768 380 L 816 380" fill="none" stroke="rgb(0,0,0)" />
  <path d="M 816 380 L 816 140" fill="none" stroke="rgb(0,0,0)" />
  <path d="M 816 140 L 824 140" fill="none" stroke="rgb(0,0,0)" />
  <polygon fill="rgb(0,0,0)" points="831,140 824,136 824,144 831,140" stroke="rgb(0,0,0)" />
  <path d="M 768 380 L 816 380" fill="none" stroke="rgb(0,0,0)" />
  <path d="M 816 380 L 816 300" fill="none" stroke="rgb(0,0,0)" />
  <path d="M 816 300 L 824 300" fill="none" stroke="rgb(0,0,0)" />
  <polygon fill="rgb(0,0,0)" points="831,300 824,296 824,304 831,300" stroke="rgb(0,0,0)" />
  <path d="M 768 460 L 816 460" fill="none" stroke="rgb(0,0,0)" />
  <path d="M 816 460 L 816 220" fill="none" stroke="rgb(0,0,0)" />
  <path d="M 816 220 L 824 220" fill="none" stroke="rgb(0,0,0)" />
  <polygon fill="rgb(0,0,0)" points="831,220 824,216 824,224 831,220" stroke="rgb(0,0,0)" />
  <path d="M 768 460 L 816 460" fill="none" stroke="rgb(0,0,0)" />
  <path d="M 816 460 L 816 60" fill="none" stroke="rgb(0,0,0)" />
  <path d="M 816 60 L 824 60" fill="none" stroke="rgb(0,0,0)" />
  <polygon fill="rgb(0,0,0)" points="831,60 824,56 824,64 831,60" stroke="rgb(0,0,0)" />
  <path d="M 768 460 L 816 460" fill="none" stroke="rgb(0,0,0)" />
  <path d="M 816 460 L 816 140" fill="none" stroke="rgb(0,0,0)" />
  <path d="M 816 140 L 824 140" fill="none" stroke="rgb(0,0,0)" />
  <polygon fill="rgb(0,0,0)" points="831,140 824,136 824,144 831,140" stroke="rgb(0,0,0)" />
  <path d="M 768 460 L 816 460" fill="none" stroke="rgb(0,0,0)" />
  <path d="M 816 460 L 816 300" fill="none" stroke="rgb(0,0,0)" />
  <path d="M 816 300 L 824 300" fill="none" stroke="rgb(0,0,0)" />
  <polygon fill="rgb(0,0,0)" points="831,300 824,296 824,304 831,300" stroke="rgb(0,0,0)" />
  <path d="M 768 540 L 816 540" fill="none" stroke="rgb(0,0,0)" />
  <path d="M 816 540 L 816 220" fill="none" stroke="rgb(0,0,0)" />
  <path d="M 816 220 L 824 220" fill="none" stroke="rgb(0,0,0)" />
  <polygon fill="rgb(0,0,0)" points="831,220 824,216 824,224 831,220" stroke="rgb(0,0,0)" />
  <path d="M 768 540 L 816 540" fill="none" stroke="rgb(0,0,0)" />
  <path d="M 816 540 L 816 60" fill="none" stroke="rgb(0,0,0)" />
  <path d="M 816 60 L 824 60" fill="none" stroke="rgb(0,0,0)" />
  <polygon fill="rgb(0,0,0)" points="831,60 824,56 824,64 831,60" stroke="rgb(0,0,0)" />
  <path d="M 768 540 L 816 540" fill="none" stroke="rgb(0,0,0)" />
  <path d="M 816 540 L 816 140" fill="none" stroke="rgb(0,0,0)" />
  <path d="M 816 140 L 824 140" fill="none" stroke="rgb(0,0,0)" />
  <polygon fill="rgb(0,0,0)" points="831,140 824,136 824,144 831,140" stroke="rgb(0,0,0)" />
  <path d="M 768 540 L 816 540" fill="none" stroke="rgb(0,0,0)" />
  <path d="M 816 540 L 816 300" fill="none" stroke="rgb(0,0,0)" />
  <path d="M 816 300 L 824 300" fill="none" stroke="rgb(0,0,0)" />
  <polygon fill="rgb(0,0,0)" points="831,300 824,296 824,304 831,300" stroke="rgb(0,0,0)" />
  <path d="M 960 300 L 1004 300" fill="none" stroke="rgb(0,0,0)" />
  <path d="M 1004.0 300.0 A4,4 0 0 1 1012.0 300.0" fill="none" stroke="rgb(0,0,0)" />
  <path d="M 1012 300 L 1016 300" fill="none" stroke="rgb(0,0,0)" />
  <polygon fill="rgb(0,0,0)" points="1023,300 1016,296 1016,304 1023,300" stroke="rgb(0,0,0)" />
  <path d="M 384 60 L 440 60" fill="none" stroke="rgb(0,0,0)" />
  <polygon fill="rgb(0,0,0)" points="447,60 440,56 440,64 447,60" stroke="rgb(0,0,0)" />
  <path d="M 384 60 L 416 60" fill="none" stroke="rgb(0,0,0)" />
  <path d="M 416 60 L 416 620" fill="none" stroke="rgb(0,0,0)" />
  <path d="M 416 620 L 428 620" fill="none" stroke="rgb(0,0,0)" />
  <path d="M 428.0 620.0 A4,4 0 0 1 436.0 620.0" fill="none" stroke="rgb(0,0,0)" />
  <path d="M 436 620 L 440 620" fill="none" stroke="rgb(0,0,0)" />
  <polygon fill="rgb(0,0,0)" points="447,620 440,616 440,624 447,620" stroke="rgb(0,0,0)" />
  <path d="M 968 140 L 1004 140" fill="none" stroke="rgb(0,0,0)" />
  <path d="M 1004.0 140.0 A4,4 0 0 1 1012.0 140.0" fill="none" stroke="rgb(0,0,0)" />
  <path d="M 1012 140 L 1024 140" fill="none" stroke="rgb(0,0,0)" />
  <polygon fill="rgb(0,0,0)" points="961,140 968,136 968,144 961,140" stroke="rgb(0,0,0)" />
  <rect fill="white" height="15" stroke="rgb(0,0,0)" width="46" x="969" y="118" />
  <text fill="rgb(0,0,0)" font-family="sansserif" font-size="11" font-style="normal" font-weight="normal" x="977" y="131">syncs</text>
  <path d="M 192 780 L 224 780" fill="none" stroke="rgb(0,0,0)" />
  <path d="M 224 780 L 224 580" fill="none" stroke="rgb(0,0,0)" />
  <path d="M 224 580 L 412 580" fill="none" stroke="rgb(0,0,0)" />
  <path d="M 412.0 580.0 A4,4 0 0 1 420.0 580.0" fill="none" stroke="rgb(0,0,0)" />
  <path d="M 420 580 L 428 580" fill="none" stroke="rgb(0,0,0)" />
  <path d="M 428.0 580.0 A4,4 0 0 1 436.0 580.0" fill="none" stroke="rgb(0,0,0)" />
  <path d="M 436 580 L 624 580" fill="none" stroke="rgb(0,0,0)" />
  <path d="M 624 580 L 624 540" fill="none" stroke="rgb(0,0,0)" />
  <path d="M 624 540 L 632 540" fill="none" stroke="rgb(0,0,0)" />
  <polygon fill="rgb(0,0,0)" points="639,540 632,536 632,544 639,540" stroke="rgb(0,0,0)" />
  <path d="M 192 780 L 224 780" fill="none" stroke="rgb(0,0,0)" />
  <path d="M 224 780 L 224 660" fill="none" stroke="rgb(0,0,0)" />
  <path d="M 224 660 L 432 660" fill="none" stroke="rgb(0,0,0)" />
  <path d="M 432 660 L 432 620" fill="none" stroke="rgb(0,0,0)" />
  <path d="M 432 620 L 440 620" fill="none" stroke="rgb(0,0,0)" />
  <polygon fill="rgb(0,0,0)" points="447,620 440,616 440,624 447,620" stroke="rgb(0,0,0)" />
  <path d="M 192 780 L 224 780" fill="none" stroke="rgb(0,0,0)" />
  <path d="M 224 780 L 224 500" fill="none" stroke="rgb(0,0,0)" />
  <path d="M 224 500 L 412 500" fill="none" stroke="rgb(0,0,0)" />
  <path d="M 412.0 500.0 A4,4 0 0 1 420.0 500.0" fill="none" stroke="rgb(0,0,0)" />
  <path d="M 420 500 L 428 500" fill="none" stroke="rgb(0,0,0)" />
  <path d="M 428.0 500.0 A4,4 0 0 1 436.0 500.0" fill="none" stroke="rgb(0,0,0)" />
  <path d="M 436 500 L 604 500" fill="none" stroke="rgb(0,0,0)" />
  <path d="M 604.0 500.0 A4,4 0 0 1 612.0 500.0" fill="none" stroke="rgb(0,0,0)" />
  <path d="M 612 500 L 624 500" fill="none" stroke="rgb(0,0,0)" />
  <path d="M 624 500 L 624 460" fill="none" stroke="rgb(0,0,0)" />
  <path d="M 624 460 L 632 460" fill="none" stroke="rgb(0,0,0)" />
  <polygon fill="rgb(0,0,0)" points="639,460 632,456 632,464 639,460" stroke="rgb(0,0,0)" />
  <path d="M 192 780 L 224 780" fill="none" stroke="rgb(0,0,0)" />
  <path d="M 224 780 L 224 100" fill="none" stroke="rgb(0,0,0)" />
  <path d="M 224 100 L 412 100" fill="none" stroke="rgb(0,0,0)" />
  <path d="M 412.0 100.0 A4,4 0 0 1 420.0 100.0" fill="none" stroke="rgb(0,0,0)" />
  <path d="M 420 100 L 432 100" fill="none" stroke="rgb(0,0,0)" />
  <path d="M 432 100 L 432 60" fill="none" stroke="rgb(0,0,0)" />
  <path d="M 432 60 L 440 60" fill="none" stroke="rgb(0,0,0)" />
  <polygon fill="rgb(0,0,0)" points="447,60 440,56 440,64 447,60" stroke="rgb(0,0,0)" />
  <path d="M 192 780 L 236 780" fill="none" stroke="rgb(0,0,0)" />
  <path d="M 236.0 780.0 A4,4 0 0 1 244.0 780.0" fill="none" stroke="rgb(0,0,0)" />
  <path d="M 244 780 L 248 780" fill="none" stroke="rgb(0,0,0)" />
  <polygon fill="rgb(0,0,0)" points="255,780 248,776 248,784 255,780" stroke="rgb(0,0,0)" />
  <path d="M 192 780 L 224 780" fill="none" stroke="rgb(0,0,0)" />
  <path d="M 224 780 L 224 100" fill="none" stroke="rgb(0,0,0)" />
  <path d="M 224 100 L 412 100" fill="none" stroke="rgb(0,0,0)" />
  <path d="M 412.0 100.0 A4,4 0 0 1 420.0 100.0" fill="none" stroke="rgb(0,0,0)" />
  <path d="M 420 100 L 428 100" fill="none" stroke="rgb(0,0,0)" />
  <path d="M 428.0 100.0 A4,4 0 0 1 436.0 100.0" fill="none" stroke="rgb(0,0,0)" />
  <path d="M 436 100 L 604 100" fill="none" stroke="rgb(0,0,0)" />
  <path d="M 604.0 100.0 A4,4 0 0 1 612.0 100.0" fill="none" stroke="rgb(0,0,0)" />
  <path d="M 612 100 L 620 100" fill="none" stroke="rgb(0,0,0)" />
  <path d="M 620.0 100.0 A4,4 0 0 1 628.0 100.0" fill="none" stroke="rgb(0,0,0)" />
  <path d="M 628 100 L 796 100" fill="none" stroke="rgb(0,0,0)" />
  <path d="M 796.0 100.0 A4,4 0 0 1 804.0 100.0" fill="none" stroke="rgb(0,0,0)" />
  <path d="M 804 100 L 812 100" fill="none" stroke="rgb(0,0,0)" />
  <path d="M 812.0 100.0 A4,4 0 0 1 820.0 100.0" fill="none" stroke="rgb(0,0,0)" />
  <path d="M 820 100 L 1008 100" fill="none" stroke="rgb(0,0,0)" />
  <path d="M 1008 100 L 1008 60" fill="none" stroke="rgb(0,0,0)" />
  <path d="M 1008 60 L 1016 60" fill="none" stroke="rgb(0,0,0)" />
  <polygon fill="rgb(0,0,0)" points="1023,60 1016,56 1016,64 1023,60" stroke="rgb(0,0,0)" />
  <path d="M 192 780 L 224 780" fill="none" stroke="rgb(0,0,0)" />
  <path d="M 224 780 L 224 100" fill="none" stroke="rgb(0,0,0)" />
  <path d="M 224 100 L 412 100" fill="none" stroke="rgb(0,0,0)" />
  <path d="M 412.0 100.0 A4,4 0 0 1 420.0 100.0" fill="none" stroke="rgb(0,0,0)" />
  <path d="M 420 100 L 428 100" fill="none" stroke="rgb(0,0,0)" />
  <path d="M 428.0 100.0 A4,4 0 0 1 436.0 100.0" fill="none" stroke="rgb(0,0,0)" />
  <path d="M 436 100 L 604 100" fill="none" stroke="rgb(0,0,0)" />
  <path d="M 604.0 100.0 A4,4 0 0 1 612.0 100.0" fill="none" stroke="rgb(0,0,0)" />
  <path d="M 612 100 L 620 100" fill="none" stroke="rgb(0,0,0)" />
  <path d="M 620.0 100.0 A4,4 0 0 1 628.0 100.0" fill="none" stroke="rgb(0,0,0)" />
  <path d="M 628 100 L 796 100" fill="none" stroke="rgb(0,0,0)" />
  <path d="M 796.0 100.0 A4,4 0 0 1 804.0 100.0" fill="none" stroke="rgb(0,0,0)" />
  <path d="M 804 100 L 816 100" fill="none" stroke="rgb(0,0,0)" />
  <path d="M 816 100 L 816 60" fill="none" stroke="rgb(0,0,0)" />
  <path d="M 816 60 L 824 60" fill="none" stroke="rgb(0,0,0)" />
  <polygon fill="rgb(0,0,0)" points="831,60 824,56 824,64 831,60" stroke="rgb(0,0,0)" />
  <path d="M 192 780 L 224 780" fill="none" stroke="rgb(0,0,0)" />
  <path d="M 224 780 L 224 340" fill="none" stroke="rgb(0,0,0)" />
  <path d="M 224 340 L 412 340" fill="none" stroke="rgb(0,0,0)" />
  <path d="M 412.0 340.0 A4,4 0 0 1 420.0 340.0" fill="none" stroke="rgb(0,0,0)" />
  <path d="M 420 340 L 428 340" fill="none" stroke="rgb(0,0,0)" />
  <path d="M 428.0 340.0 A4,4 0 0 1 436.0 340.0" fill="none" stroke="rgb(0,0,0)" />
  <path d="M 436 340 L 604 340" fill="none" stroke="rgb(0,0,0)" />
  <path d="M 604.0 340.0 A4,4 0 0 1 612.0 340.0" fill="none" stroke="rgb(0,0,0)" />
  <path d="M 612 340 L 620 340" fill="none" stroke="rgb(0,0,0)" />
  <path d="M 620.0 340.0 A4,4 0 0 1 628.0 340.0" fill="none" stroke="rgb(0,0,0)" />
  <path d="M 628 340 L 816 340" fill="none" stroke="rgb(0,0,0)" />
  <path d="M 816 340 L 816 300" fill="none" stroke="rgb(0,0,0)" />
  <path d="M 816 300 L 824 300" fill="none" stroke="rgb(0,0,0)" />
  <polygon fill="rgb(0,0,0)" points="831,300 824,296 824,304 831,300" stroke="rgb(0,0,0)" />
  <path d="M 192 780 L 224 780" fill="none" stroke="rgb(0,0,0)" />
  <path d="M 224 780 L 224 420" fill="none" stroke="rgb(0,0,0)" />
  <path d="M 224 420 L 412 420" fill="none" stroke="rgb(0,0,0)" />
  <path d="M 412.0 420.0 A4,4 0 0 1 420.0 420.0" fill="none" stroke="rgb(0,0,0)" />
  <path d="M 420 420 L 428 420" fill="none" stroke="rgb(0,0,0)" />
  <path d="M 428.0 420.0 A4,4 0 0 1 436.0 420.0" fill="none" stroke="rgb(0,0,0)" />
  <path d="M 436 420 L 604 420" fill="none" stroke="rgb(0,0,0)" />
  <path d="M 604.0 420.0 A4,4 0 0 1 612.0 420.0" fill="none" stroke="rgb(0,0,0)" />
  <path d="M 612 420 L 624 420" fill="none" stroke="rgb(0,0,0)" />
  <path d="M 624 420 L 624 380" fill="none" stroke="rgb(0,0,0)" />
  <path d="M 624 380 L 632 380" fill="none" stroke="rgb(0,0,0)" />
  <polygon fill="rgb(0,0,0)" points="639,380 632,376 632,384 639,380" stroke="rgb(0,0,0)" />
  <path d="M 192 780 L 224 780" fill="none" stroke="rgb(0,0,0)" />
  <path d="M 224 780 L 224 340" fill="none" stroke="rgb(0,0,0)" />
  <path d="M 224 340 L 412 340" fill="none" stroke="rgb(0,0,0)" />
  <path d="M 412.0 340.0 A4,4 0 0 1 420.0 340.0" fill="none" stroke="rgb(0,0,0)" />
  <path d="M 420 340 L 428 340" fill="none" stroke="rgb(0,0,0)" />
  <path d="M 428.0 340.0 A4,4 0 0 1 436.0 340.0" fill="none" stroke="rgb(0,0,0)" />
  <path d="M 436 340 L 604 340" fill="none" stroke="rgb(0,0,0)" />
  <path d="M 604.0 340.0 A4,4 0 0 1 612.0 340.0" fill="none" stroke="rgb(0,0,0)" />
  <path d="M 612 340 L 620 340" fill="none" stroke="rgb(0,0,0)" />
  <path d="M 620.0 340.0 A4,4 0 0 1 628.0 340.0" fill="none" stroke="rgb(0,0,0)" />
  <path d="M 628 340 L 812 340" fill="none" stroke="rgb(0,0,0)" />
  <path d="M 812.0 340.0 A4,4 0 0 1 820.0 340.0" fill="none" stroke="rgb(0,0,0)" />
  <path d="M 820 340 L 1008 340" fill="none" stroke="rgb(0,0,0)" />
  <path d="M 1008 340 L 1008 300" fill="none" stroke="rgb(0,0,0)" />
  <path d="M 1008 300 L 1016 300" fill="none" stroke="rgb(0,0,0)" />
  <polygon fill="rgb(0,0,0)" points="1023,300 1016,296 1016,304 1023,300" stroke="rgb(0,0,0)" />
  <path d="M 192 780 L 240 780" fill="none" stroke="rgb(0,0,0)" />
  <path d="M 240 780 L 240 700" fill="none" stroke="rgb(0,0,0)" />
  <path d="M 240 700 L 248 700" fill="none" stroke="rgb(0,0,0)" />
  <polygon fill="rgb(0,0,0)" points="255,700 248,696 248,704 255,700" stroke="rgb(0,0,0)" />
  <path d="M 192 780 L 224 780" fill="none" stroke="rgb(0,0,0)" />
  <path d="M 224 780 L 224 100" fill="none" stroke="rgb(0,0,0)" />
  <path d="M 224 100 L 412 100" fill="none" stroke="rgb(0,0,0)" />
  <path d="M 412.0 100.0 A4,4 0 0 1 420.0 100.0" fill="none" stroke="rgb(0,0,0)" />
  <path d="M 420 100 L 428 100" fill="none" stroke="rgb(0,0,0)" />
  <path d="M 428.0 100.0 A4,4 0 0 1 436.0 100.0" fill="none" stroke="rgb(0,0,0)" />
  <path d="M 436 100 L 604 100" fill="none" stroke="rgb(0,0,0)" />
  <path d="M 604.0 100.0 A4,4 0 0 1 612.0 100.0" fill="none" stroke="rgb(0,0,0)" />
  <path d="M 612 100 L 624 100" fill="none" stroke="rgb(0,0,0)" />
  <path d="M 624 100 L 624 60" fill="none" stroke="rgb(0,0,0)" />
  <path d="M 624 60 L 632 60" fill="none" stroke="rgb(0,0,0)" />
  <polygon fill="rgb(0,0,0)" points="639,60 632,56 632,64 639,60" stroke="rgb(0,0,0)" />
  <path d="M 192 860 L 236 860" fill="none" stroke="rgb(0,0,0)" />
  <path d="M 236.0 860.0 A4,4 0 0 1 244.0 860.0" fill="none" stroke="rgb(0,0,0)" />
  <path d="M 244 860 L 624 860" fill="none" stroke="rgb(0,0,0)" />
  <path d="M 624 860 L 624 540" fill="none" stroke="rgb(0,0,0)" />
  <path d="M 624 540 L 632 540" fill="none" stroke="rgb(0,0,0)" />
  <polygon fill="rgb(0,0,0)" points="639,540 632,536 632,544 639,540" stroke="rgb(0,0,0)" />
  <path d="M 192 860 L 236 860" fill="none" stroke="rgb(0,0,0)" />
  <path d="M 236.0 860.0 A4,4 0 0 1 244.0 860.0" fill="none" stroke="rgb(0,0,0)" />
  <path d="M 244 860 L 432 860" fill="none" stroke="rgb(0,0,0)" />
  <path d="M 432 860 L 432 620" fill="none" stroke="rgb(0,0,0)" />
  <path d="M 432 620 L 440 620" fill="none" stroke="rgb(0,0,0)" />
  <polygon fill="rgb(0,0,0)" points="447,620 440,616 440,624 447,620" stroke="rgb(0,0,0)" />
  <path d="M 192 860 L 236 860" fill="none" stroke="rgb(0,0,0)" />
  <path d="M 236.0 860.0 A4,4 0 0 1 244.0 860.0" fill="none" stroke="rgb(0,0,0)" />
  <path d="M 244 860 L 624 860" fill="none" stroke="rgb(0,0,0)" />
  <path d="M 624 860 L 624 460" fill="none" stroke="rgb(0,0,0)" />
  <path d="M 624 460 L 632 460" fill="none" stroke="rgb(0,0,0)" />
  <polygon fill="rgb(0,0,0)" points="639,460 632,456 632,464 639,460" stroke="rgb(0,0,0)" />
  <path d="M 192 860 L 236 860" fill="none" stroke="rgb(0,0,0)" />
  <path d="M 236.0 860.0 A4,4 0 0 1 244.0 860.0" fill="none" stroke="rgb(0,0,0)" />
  <path d="M 244 860 L 432 860" fill="none" stroke="rgb(0,0,0)" />
  <path d="M 432 860 L 432 60" fill="none" stroke="rgb(0,0,0)" />
  <path d="M 432 60 L 440 60" fill="none" stroke="rgb(0,0,0)" />
  <polygon fill="rgb(0,0,0)" points="447,60 440,56 440,64 447,60" stroke="rgb(0,0,0)" />
  <path d="M 192 860 L 240 860" fill="none" stroke="rgb(0,0,0)" />
  <path d="M 240 860 L 240 780" fill="none" stroke="rgb(0,0,0)" />
  <path d="M 240 780 L 248 780" fill="none" stroke="rgb(0,0,0)" />
  <polygon fill="rgb(0,0,0)" points="255,780 248,776 248,784 255,780" stroke="rgb(0,0,0)" />
  <path d="M 192 860 L 236 860" fill="none" stroke="rgb(0,0,0)" />
  <path d="M 236.0 860.0 A4,4 0 0 1 244.0 860.0" fill="none" stroke="rgb(0,0,0)" />
  <path d="M 244 860 L 1008 860" fill="none" stroke="rgb(0,0,0)" />
  <path d="M 1008 860 L 1008 60" fill="none" stroke="rgb(0,0,0)" />
  <path d="M 1008 60 L 1016 60" fill="none" stroke="rgb(0,0,0)" />
  <polygon fill="rgb(0,0,0)" points="1023,60 1016,56 1016,64 1023,60" stroke="rgb(0,0,0)" />
  <path d="M 192 860 L 236 860" fill="none" stroke="rgb(0,0,0)" />
  <path d="M 236.0 860.0 A4,4 0 0 1 244.0 860.0" fill="none" stroke="rgb(0,0,0)" />
  <path d="M 244 860 L 816 860" fill="none" stroke="rgb(0,0,0)" />
  <path d="M 816 860 L 816 60" fill="none" stroke="rgb(0,0,0)" />
  <path d="M 816 60 L 824 60" fill="none" stroke="rgb(0,0,0)" />
  <polygon fill="rgb(0,0,0)" points="831,60 824,56 824,64 831,60" stroke="rgb(0,0,0)" />
  <path d="M 192 860 L 236 860" fill="none" stroke="rgb(0,0,0)" />
  <path d="M 236.0 860.0 A4,4 0 0 1 244.0 860.0" fill="none" stroke="rgb(0,0,0)" />
  <path d="M 244 860 L 816 860" fill="none" stroke="rgb(0,0,0)" />
  <path d="M 816 860 L 816 300" fill="none" stroke="rgb(0,0,0)" />
  <path d="M 816 300 L 824 300" fill="none" stroke="rgb(0,0,0)" />
  <polygon fill="rgb(0,0,0)" points="831,300 824,296 824,304 831,300" stroke="rgb(0,0,0)" />
  <path d="M 192 860 L 236 860" fill="none" stroke="rgb(0,0,0)" />
  <path d="M 236.0 860.0 A4,4 0 0 1 244.0 860.0" fill="none" stroke="rgb(0,0,0)" />
  <path d="M 244 860 L 624 860" fill="none" stroke="rgb(0,0,0)" />
  <path d="M 624 860 L 624 380" fill="none" stroke="rgb(0,0,0)" />
  <path d="M 624 380 L 632 380" fill="none" stroke="rgb(0,0,0)" />
  <polygon fill="rgb(0,0,0)" points="639,380 632,376 632,384 639,380" stroke="rgb(0,0,0)" />
  <path d="M 192 860 L 236 860" fill="none" stroke="rgb(0,0,0)" />
  <path d="M 236.0 860.0 A4,4 0 0 1 244.0 860.0" fill="none" stroke="rgb(0,0,0)" />
  <path d="M 244 860 L 1008 860" fill="none" stroke="rgb(0,0,0)" />
  <path d="M 1008 860 L 1008 300" fill="none" stroke="rgb(0,0,0)" />
  <path d="M 1008 300 L 1016 300" fill="none" stroke="rgb(0,0,0)" />
  <polygon fill="rgb(0,0,0)" points="1023,300 1016,296 1016,304 1023,300" stroke="rgb(0,0,0)" />
  <path d="M 192 860 L 240 860" fill="none" stroke="rgb(0,0,0)" />
  <path d="M 240 860 L 240 700" fill="none" stroke="rgb(0,0,0)" />
  <path d="M 240 700 L 248 700" fill="none" stroke="rgb(0,0,0)" />
  <polygon fill="rgb(0,0,0)" points="255,700 248,696 248,704 255,700" stroke="rgb(0,0,0)" />
  <path d="M 192 860 L 236 860" fill="none" stroke="rgb(0,0,0)" />
  <path d="M 236.0 860.0 A4,4 0 0 1 244.0 860.0" fill="none" stroke="rgb(0,0,0)" />
  <path d="M 244 860 L 624 860" fill="none" stroke="rgb(0,0,0)" />
  <path d="M 624 860 L 624 60" fill="none" stroke="rgb(0,0,0)" />
  <path d="M 624 60 L 632 60" fill="none" stroke="rgb(0,0,0)" />
  <polygon fill="rgb(0,0,0)" points="639,60 632,56 632,64 639,60" stroke="rgb(0,0,0)" />
</svg>
